<?xml version="1.0" encoding="utf-8"?>
<!-- Generator: Adobe Illustrator 25.4.1, SVG Export Plug-In . SVG Version: 6.00 Build 0)  -->
<svg version="1.1" xmlns="http://www.w3.org/2000/svg" xmlns:xlink="http://www.w3.org/1999/xlink" x="0px" y="0px"
	 viewBox="0 0 955.52 274" style="enable-background:new 0 0 955.52 274;" xml:space="preserve">
<style type="text/css">
	.st0{fill:#FFFFFF;}
	.st1{fill:#737373;}
	.st2{fill:#404040;}
	.st3{display:none;}
	.st4{display:inline;opacity:0.15;fill:#ED1C24;}
</style>
<g id="Logo">
	<g>
		<rect class="st0" width="955.52" height="274"/>
		<rect x="517.44" y="10" width="428.09" height="254"/>
		<g>
			<g>
				<path d="M223.1,143.84v-41.63h17.46v42.23c0,6.91,3.55,11.54,12.14,11.54c8.09,0,11.94-4.93,11.94-11.84v-41.93h17.46v41.63
					c0,16.28-9.77,26.14-29.4,26.14C232.97,169.98,223.1,160.31,223.1,143.84z"/>
				<path d="M291.27,118.19h15.49v6.91h0.3c3.75-5.43,8.58-8.39,15.59-8.39c11.05,0,17.56,7.89,17.56,19.14v32.85h-16.08v-29.6
					c0-5.33-2.66-8.98-7.89-8.98c-5.33,0-8.88,4.44-8.88,10.66v27.92h-16.08V118.19z"/>
				<path d="M348.5,98.16h16.08v13.02H348.5V98.16z M348.5,118.19h16.08v50.51H348.5V118.19z"/>
				<path d="M377.21,155.38v-24.16h-6.71v-13.03h6.71v-15.98h15.69v15.98h9.18v13.03h-9.18v20.71c0,3.95,2.17,4.93,5.62,4.93
					c1.38,0,2.96-0.1,3.55-0.1v11.74c-1.38,0.39-4.44,0.79-8.78,0.79C383.92,169.29,377.21,166.23,377.21,155.38z"/>
				<path d="M412.04,172.84h5.52c4.74,0,6.61-1.87,6.61-5.33c0-2.17-0.99-5.13-3.06-10.46l-14.9-38.87h16.97l6.81,21.51
					c1.58,4.93,3.16,11.64,3.16,11.64h0.2c0,0,1.38-6.71,2.96-11.64l6.61-21.51H459l-17.46,51.2c-4.05,11.84-8.88,15.98-19.04,15.98
					h-10.46V172.84z"/>
			</g>
			<path d="M189.14,166.35V97.79l-59.38-34.28v26.3l23.27,13.43c0.84,0.47,0.86,1.79,0,2.25c0,0-27.65,15.97-27.65,15.97
				c-0.84,0.48-1.83,0.45-2.61,0l-27.65-15.96c-0.84-0.46-0.87-1.79,0-2.25c0,0,23.26-13.43,23.26-13.43l0-26.3L59,97.79v68.56
				l0-0.31v0.31l22.78-13.15v-26.87c-0.02-0.96,1.12-1.64,1.95-1.12l27.65,15.97c0.84,0.48,1.3,1.36,1.3,2.26l0,31.93
				c0.02,0.96-1.11,1.64-1.94,1.13l-23.27-13.44l-22.78,13.15l59.38,34.28l59.38-34.28l-22.78-13.15l-23.27,13.43
				c-0.82,0.5-1.98-0.15-1.95-1.13c0,0,0-31.93,0-31.93c0-0.96,0.52-1.81,1.3-2.26l27.65-15.96c0.82-0.5,1.98,0.14,1.95,1.13
				l0,26.86L189.14,166.35z"/>
			<path d="M124.07,210.49l59.38-34.28l-22.78-13.15l-23.27,13.43c-0.82,0.5-1.98-0.15-1.95-1.13c0,0,0-31.93,0-31.93
				c0-0.96,0.52-1.81,1.3-2.26l27.65-15.96c0.82-0.5,1.98,0.14,1.95,1.13c0,0,0,26.86,0,26.86l22.78,13.15V97.79l-65.07,37.57
				L124.07,210.49z"/>
			<path class="st1" d="M129.76,63.51v26.3l23.27,13.43c0.84,0.47,0.86,1.79,0,2.25c0,0-27.65,15.97-27.65,15.97
				c-0.84,0.48-1.83,0.45-2.61,0l-27.65-15.96c-0.84-0.46-0.87-1.79,0-2.25c0,0,23.26-13.43,23.26-13.43l0-26.3L59,97.79
				l65.07,37.57l65.07-37.57L129.76,63.51z"/>
			<path class="st2" d="M110.74,176.5l-23.27-13.44l-22.78,13.15l59.38,34.28l0-75.14L59,97.79v68.56l0-0.31v0.31l22.78-13.15
				l0-26.87c-0.02-0.96,1.12-1.64,1.95-1.12c0,0,27.65,15.97,27.65,15.97c0.84,0.48,1.3,1.36,1.3,2.26l0,31.93
				C112.7,176.32,111.58,177.01,110.74,176.5z"/>
		</g>
		<g>
			<path class="st0" d="M596.04,80.2h0.47l12.33-38.68h11.93l-17.55,50.91h-13.87l-17.57-50.91h11.96L596.04,80.2z"/>
			<path class="st0" d="M620.2,73.52c0-11.78,7.28-19.76,18.52-19.76c10.09,0,17.95,6.41,17.95,19.39v2.91h-26v0.03
				c0,5.69,3.36,9.2,8.65,9.2c3.53,0,6.26-1.52,7.33-4.42l9.79,0.65c-1.49,7.08-7.86,11.68-17.3,11.68
				C627.39,93.18,620.2,85.62,620.2,73.52z M646.7,69.49c-0.02-4.55-3.21-7.83-7.8-7.83c-4.7,0-8,3.48-8.23,7.83H646.7z"/>
			<path class="st0" d="M662.83,54.25h10.27v6.66h0.4c1.39-4.72,4.9-7.21,9.17-7.21c1.07,0,2.39,0.15,3.33,0.37v9.4
				c-0.99-0.32-3.01-0.57-4.47-0.57c-4.67,0-8.1,3.23-8.1,7.93v21.6h-10.59V54.25z"/>
			<path class="st0" d="M689.84,43.96c0-2.93,2.58-5.34,5.72-5.34c3.16,0,5.74,2.41,5.74,5.34c0,2.96-2.58,5.37-5.74,5.37
				C692.42,49.33,689.84,46.92,689.84,43.96z M690.23,54.25h10.59v38.18h-10.59V54.25z"/>
			<path class="st0" d="M728.93,62.21h-7.58v30.23h-10.59V62.21h-5.39v-7.95h5.39V51.5c0-8.3,5.34-12.35,12.53-12.35
				c3.26,0,6.17,0.65,7.48,1.04l-1.86,7.95c-0.85-0.27-2.14-0.55-3.41-0.55c-3.11,0-4.15,1.52-4.15,4.1v2.56h7.58V62.21z"/>
			<path class="st0" d="M734.26,43.96c0-2.93,2.58-5.34,5.72-5.34c3.16,0,5.74,2.41,5.74,5.34c0,2.96-2.58,5.37-5.74,5.37
				C736.84,49.33,734.26,46.92,734.26,43.96z M734.65,54.25h10.59v38.18h-10.59V54.25z"/>
			<path class="st0" d="M751.3,73.52c0-11.78,7.28-19.76,18.52-19.76c10.09,0,17.95,6.41,17.95,19.39v2.91h-26v0.03
				c0,5.69,3.36,9.2,8.65,9.2c3.53,0,6.26-1.52,7.33-4.42l9.79,0.65c-1.49,7.08-7.86,11.68-17.3,11.68
				C758.48,93.18,751.3,85.62,751.3,73.52z M777.8,69.49c-0.02-4.55-3.21-7.83-7.8-7.83c-4.7,0-8,3.48-8.23,7.83H777.8z"/>
			<path class="st0" d="M792.29,73.39c0-13.12,7.08-19.64,15.46-19.64c6.39,0,9.45,3.8,10.86,6.91h0.32V41.53h10.56v50.91h-10.44
				v-6.11h-0.45c-1.47,3.18-4.67,6.74-10.84,6.74C799.07,93.06,792.29,86.17,792.29,73.39z M819.16,73.34
				c0-6.81-2.88-11.16-8.03-11.16c-5.25,0-8.03,4.55-8.03,11.16c0,6.66,2.83,11.29,8.03,11.29
				C816.22,84.63,819.16,80.16,819.16,73.34z"/>
			<path class="st0" d="M596.45,119.83c-5.27,0-8.18,2.41-8.18,5.69c-0.07,3.65,3.63,5.29,8.05,6.31l4.57,1.09
				c8.85,1.99,15.24,6.49,15.26,14.96c-0.03,9.32-7.33,15.26-19.76,15.26c-12.35,0-20.23-5.69-20.51-16.7h10.42
				c0.35,5.1,4.37,7.68,9.97,7.68c5.47,0,9-2.54,9.02-6.26c-0.03-3.43-3.11-5.02-8.65-6.36l-5.54-1.39
				c-8.6-2.06-13.89-6.36-13.87-13.87c-0.05-9.25,8.13-15.41,19.29-15.41c11.33,0,18.79,6.26,18.94,15.34h-10.32
				C604.75,122.17,601.6,119.83,596.45,119.83z"/>
			<path class="st0" d="M620.82,143.49c0-11.83,7.21-19.74,18.79-19.74c11.58,0,18.79,7.9,18.79,19.74
				c0,11.76-7.21,19.69-18.79,19.69C628.03,163.18,620.82,155.25,620.82,143.49z M647.64,143.42c0-6.66-2.73-11.58-7.98-11.58
				c-5.34,0-8.08,4.92-8.08,11.58c0,6.66,2.73,11.56,8.08,11.56C644.91,154.98,647.64,150.08,647.64,143.42z"/>
			<path class="st0" d="M675,162.43h-10.59v-50.91H675V162.43z"/>
			<path class="st0" d="M707.32,124.25h10.59v38.18h-10.17v-6.93h-0.4c-1.71,4.47-5.84,7.43-11.58,7.43
				c-7.68,0-12.9-5.44-12.93-14.37v-24.31h10.59v22.42c0.03,4.5,2.61,7.31,6.61,7.31c3.8,0,7.31-2.68,7.28-7.8V124.25z"/>
			<path class="st0" d="M745.54,132.21h-7.18v18.49c0,2.93,1.47,3.73,3.58,3.73c0.99,0,2.11-0.25,2.63-0.35l1.67,7.88
				c-1.07,0.35-3.01,0.9-5.74,1c-7.68,0.32-12.78-3.38-12.73-10.86v-19.89h-5.22v-7.95h5.22v-9.15h10.59v9.15h7.18V132.21z"/>
			<path class="st0" d="M750.99,113.96c0-2.93,2.58-5.34,5.72-5.34c3.16,0,5.74,2.41,5.74,5.34c0,2.96-2.58,5.37-5.74,5.37
				C753.57,119.33,750.99,116.92,750.99,113.96z M751.38,124.25h10.59v38.18h-10.59V124.25z"/>
			<path class="st0" d="M768.03,143.49c0-11.83,7.21-19.74,18.79-19.74c11.58,0,18.79,7.9,18.79,19.74
				c0,11.76-7.21,19.69-18.79,19.69C775.24,163.18,768.03,155.25,768.03,143.49z M794.85,143.42c0-6.66-2.73-11.58-7.98-11.58
				c-5.34,0-8.08,4.92-8.08,11.58c0,6.66,2.73,11.56,8.08,11.56C792.12,154.98,794.85,150.08,794.85,143.42z"/>
			<path class="st0" d="M822.24,162.43h-10.59v-38.18h10.09v6.74h0.45c1.71-4.45,5.82-7.23,11.48-7.23
				c7.95,0,13.17,5.47,13.17,14.37v24.31h-10.59v-22.42c0.02-4.67-2.54-7.46-6.79-7.46c-4.28,0-7.21,2.88-7.23,7.81V162.43z"/>
			<path class="st0" d="M875.99,135.74c-0.52-2.46-2.71-4.47-6.39-4.47c-3.28,0-5.87,1.49-5.84,3.78c-0.02,1.84,1.29,3.06,4.85,3.83
				l6.91,1.39c7.41,1.52,11.01,4.82,11.04,10.34c-0.02,7.53-7.11,12.58-17,12.58c-10.12,0-16.33-4.5-17.33-11.81l10.42-0.55
				c0.65,3.11,3.16,4.72,6.94,4.72c3.7,0,6.16-1.62,6.21-3.88c-0.05-1.91-1.57-3.13-4.9-3.8l-6.61-1.32
				c-7.46-1.49-11.06-5.19-11.04-10.91c-0.03-7.36,6.41-11.88,16.18-11.88c9.64,0,15.31,4.35,16.26,11.38L875.99,135.74z"/>
			<path class="st0" d="M577.54,181.53h20.08c11.56,0,18.24,7.13,18.24,17.25c0,10.17-6.81,17.15-18.52,17.15h-9.05v16.5h-10.76
				V181.53z M595.61,207.3c6.16,0,9.17-3.48,9.17-8.53c0-5.07-3.01-8.45-9.22-8.45h-7.26v16.98H595.61z"/>
			<path class="st0" d="M617.74,221.77c0-8.53,6.79-11.06,14.34-11.76c6.64-0.65,9.25-0.97,9.25-3.43v-0.15
				c0-3.13-2.06-4.95-5.67-4.95c-3.8,0-6.06,1.86-6.79,4.4l-9.79-0.79c1.47-6.96,7.48-11.33,16.63-11.33
				c8.5,0,16.21,3.83,16.21,12.93v25.75h-10.04v-5.29h-0.3c-1.86,3.55-5.52,6.02-11.16,6.02
				C623.13,233.16,617.74,229.33,617.74,221.77z M641.4,218.79v-4.05c-1.27,0.85-5.05,1.39-7.36,1.72
				c-3.73,0.52-6.19,1.99-6.19,4.97c0,2.91,2.34,4.42,5.59,4.42C638.1,225.85,641.4,222.79,641.4,218.79z"/>
			<path class="st0" d="M659.49,194.25h10.27v6.66h0.4c1.39-4.72,4.9-7.21,9.17-7.21c1.07,0,2.39,0.15,3.33,0.37v9.4
				c-0.99-0.32-3.01-0.57-4.47-0.57c-4.67,0-8.1,3.23-8.1,7.93v21.6h-10.59V194.25z"/>
			<path class="st0" d="M708.65,202.21h-7.18v18.49c0,2.93,1.47,3.73,3.58,3.73c0.99,0,2.11-0.25,2.63-0.35l1.67,7.88
				c-1.07,0.35-3.01,0.9-5.74,1c-7.68,0.32-12.78-3.38-12.73-10.86v-19.89h-5.22v-7.95h5.22v-9.15h10.59v9.15h7.18V202.21z"/>
			<path class="st0" d="M725.23,232.43h-10.59v-38.18h10.09v6.74h0.45c1.71-4.45,5.82-7.23,11.48-7.23
				c7.95,0,13.17,5.47,13.17,14.37v24.31h-10.59v-22.42c0.02-4.67-2.54-7.46-6.79-7.46c-4.28,0-7.21,2.88-7.23,7.81V232.43z"/>
			<path class="st0" d="M755.56,213.52c0-11.78,7.28-19.76,18.52-19.76c10.09,0,17.95,6.41,17.95,19.39v2.91h-26v0.03
				c0,5.69,3.36,9.2,8.65,9.2c3.53,0,6.26-1.52,7.33-4.42l9.79,0.65c-1.49,7.08-7.86,11.68-17.3,11.68
				C762.75,233.18,755.56,225.62,755.56,213.52z M782.06,209.49c-0.02-4.55-3.21-7.83-7.8-7.83c-4.7,0-8,3.48-8.23,7.83H782.06z"/>
			<path class="st0" d="M798.19,194.25h10.27v6.66h0.4c1.39-4.72,4.9-7.21,9.17-7.21c1.07,0,2.39,0.15,3.33,0.37v9.4
				c-0.99-0.32-3.01-0.57-4.47-0.57c-4.67,0-8.1,3.23-8.1,7.93v21.6h-10.59V194.25z"/>
		</g>
	</g>
</g>
<g id="Guides" class="st3">
	<path class="st4" d="M459.5,142.37v-41.63h17.46v42.23c0,6.91,3.55,11.54,12.14,11.54c8.09,0,11.94-4.93,11.94-11.84v-41.93h17.46
		v41.63c0,16.28-9.77,26.14-29.4,26.14C469.36,168.51,459.5,158.84,459.5,142.37z"/>
	<path class="st4" d="M0.5,142.37v-41.63h17.46v42.23c0,6.91,3.55,11.54,12.14,11.54c8.09,0,11.94-4.93,11.94-11.84v-41.93H59.5
		v41.63c0,16.28-9.77,26.14-29.4,26.14C10.37,168.51,0.5,158.84,0.5,142.37z"/>
	<path class="st4" d="M518.5,142.37v-41.63h17.46v42.23c0,6.91,3.55,11.54,12.14,11.54c8.09,0,11.94-4.93,11.94-11.84v-41.93h17.46
		v41.63c0,16.28-9.77,26.14-29.4,26.14C528.36,168.51,518.5,158.84,518.5,142.37z"/>
	<path class="st4" d="M886.53,142.37v-41.63h17.46v42.23c0,6.91,3.55,11.54,12.14,11.54c8.09,0,11.94-4.93,11.94-11.84v-41.93h17.46
		v41.63c0,16.28-9.77,26.14-29.4,26.14C896.39,168.51,886.53,158.84,886.53,142.37z"/>
</g>
</svg>
